<?xml version="1.0" encoding="utf-8"?>
<!-- Generator: Adobe Illustrator 24.0.3, SVG Export Plug-In . SVG Version: 6.00 Build 0)  -->
<svg version="1.1" id="Layer_1" xmlns="http://www.w3.org/2000/svg" xmlns:xlink="http://www.w3.org/1999/xlink" x="0px" y="0px"
	 viewBox="0 0 32 32" style="enable-background:new 0 0 32 32;" xml:space="preserve">
<style type="text/css">
	.st0{fill:url(#SVGID_1_);}
	.st1{fill:url(#SVGID_2_);}
	.st2{fill:url(#SVGID_3_);}
	.st3{fill:url(#SVGID_4_);}
</style>
<g>
	<linearGradient id="SVGID_1_" gradientUnits="userSpaceOnUse" x1="0" y1="16" x2="32" y2="16">
		<stop  offset="2.822970e-02" style="stop-color:#66AEE5"/>
		<stop  offset="1" style="stop-color:#4388CC"/>
	</linearGradient>
	<path class="st0" d="M26.4,0H5.6C2.5,0,0,2.5,0,5.6v20.8C0,29.5,2.5,32,5.6,32h20.8c3.1,0,5.6-2.5,5.6-5.6V5.6
		C32,2.5,29.5,0,26.4,0z"/>
	<linearGradient id="SVGID_2_" gradientUnits="userSpaceOnUse" x1="12.3446" y1="24.4368" x2="28.836" y2="24.4368">
		<stop  offset="2.686050e-02" style="stop-color:#FFFFFF"/>
		<stop  offset="1" style="stop-color:#FFFFFF"/>
	</linearGradient>
	<path class="st1" d="M28.8,22.9c-0.2-0.7-0.9-1.2-1.6-1.1c-0.7,0.1-1.4,0.7-1.4,1.5c0,0.1,0,0.2-0.1,0.2c-0.7,0.5-1.4,0.9-2.1,1.4
		c-0.1,0-0.1,0.1-0.2,0c-0.3-0.1-0.5-0.2-0.8-0.1c-0.1,0-0.2,0-0.2-0.1c-0.8-0.8-1.6-1.6-2.5-2.5c0,0-0.1-0.1-0.1-0.2
		c0-0.2,0-0.4,0-0.6c-0.1-0.7-0.8-1.3-1.5-1.2c-0.3,0-0.5,0-0.7,0.2c-0.6,0.4-0.9,1-0.7,1.7c0,0.1,0,0.1,0,0.2
		c-0.3,0.4-0.7,0.8-1,1.2c-0.5,0.6-1.1,1.3-1.6,1.9c0,0-0.1,0.1-0.1,0.1c-0.5-0.1-1,0.1-1.4,0.5c-0.4,0.5-0.5,1.2-0.2,1.7
		c0.3,0.6,1,0.9,1.7,0.8c0.8-0.1,1.3-0.9,1.2-1.7c0-0.2-0.1-0.3,0.1-0.5c0.3-0.3,0.6-0.6,0.8-1c0.5-0.6,1.1-1.2,1.6-1.9
		c0.1-0.2,0.3-0.2,0.5-0.2c0.1,0,0.2,0,0.2,0c0.1,0,0.2,0,0.3,0.1c0.8,0.8,1.6,1.6,2.4,2.4c0.1,0.1,0.1,0.2,0.1,0.3
		c-0.1,0.2,0,0.4,0,0.6c0.2,0.7,0.9,1.2,1.6,1.2c0.8-0.1,1.3-0.7,1.4-1.5c0-0.1,0-0.2,0.1-0.2c0.7-0.5,1.4-0.9,2.1-1.4
		c0.1,0,0.1-0.1,0.2,0c0.2,0.1,0.4,0.1,0.6,0.1C28.3,24.8,29,23.9,28.8,22.9z"/>
	<linearGradient id="SVGID_3_" gradientUnits="userSpaceOnUse" x1="12.3463" y1="15.4687" x2="28.833" y2="15.4687">
		<stop  offset="2.686050e-02" style="stop-color:#FFFFFF"/>
		<stop  offset="1" style="stop-color:#FFFFFF"/>
	</linearGradient>
	<path class="st2" d="M24.6,14.9c-0.4,0.5-0.9,1-1.3,1.5c-0.1,0.1-0.2,0.2-0.4,0.2c-0.2,0-0.4,0-0.6,0.1c-0.1,0-0.1,0-0.2,0
		c-0.7-0.5-1.4-0.9-2.1-1.4c-0.1,0-0.1-0.1-0.1-0.2c0-0.6-0.4-1.2-1-1.4c-0.9-0.3-1.9,0.3-2,1.2c0,0.1-0.1,0.2-0.2,0.2
		c-0.6,0.3-1.2,0.6-1.8,0.9c-0.1,0.1-0.2,0.1-0.3,0c-0.8-0.4-1.8-0.1-2.1,0.8c-0.2,0.6,0,1.4,0.5,1.8c0.6,0.4,1.1,0.4,1.7,0
		c0.4-0.2,0.6-0.6,0.6-1c0-0.1,0.1-0.2,0.2-0.3c0.6-0.3,1.2-0.6,1.8-0.9c0.1-0.1,0.2-0.1,0.3,0c0.4,0.2,0.8,0.2,1.2,0.1
		c0.1,0,0.2,0,0.2,0c0.7,0.4,1.3,0.9,2,1.3c0.1,0.1,0.2,0.1,0.2,0.3c0,0.1,0,0.2,0,0.3c0.2,0.8,0.9,1.3,1.7,1.1
		c0.9-0.1,1.5-1,1.3-1.8c0-0.1,0-0.2,0.1-0.3c0.2-0.2,0.4-0.5,0.6-0.7c0.3-0.3,0.5-0.6,0.8-1c0.3-0.4,0.7-0.8,1-1.2
		c0.1-0.1,0.2-0.2,0.4-0.2c1,0,1.7-0.8,1.6-1.8c-0.2-1-1.2-1.6-2.1-1.1c-0.7,0.3-1,1-0.8,1.8c0,0.1,0,0.1,0,0.2
		C25.4,13.9,25,14.4,24.6,14.9z"/>
	<linearGradient id="SVGID_4_" gradientUnits="userSpaceOnUse" x1="2.6958" y1="13.9107" x2="24.5202" y2="13.9107">
		<stop  offset="2.686050e-02" style="stop-color:#FFFFFF"/>
		<stop  offset="1" style="stop-color:#FFFFFF"/>
	</linearGradient>
	<path class="st3" d="M12.8,24.1c0,0.4,0.4,0.8,0.9,0.8c0.4,0,0.7-0.3,0.7-0.8c0-0.4,0-0.8,0-1.2c0-0.3,0-0.6,0-0.9
		c0.7-0.1,1.3-0.2,2-0.4c0.1-0.6,0.4-1.1,1-1.5c0.3-0.2,0.6-0.3,0.9-0.3c0,0,0.1,0,0.1,0c0,0,0.1,0,0.1,0c0.9,0,1.7,0.7,1.9,1.6
		c0,0.1,0,0.2,0,0.3c0.1,0.1,0.3,0.1,0.4,0.1c0.4,0,0.7-0.1,0.8-0.4c0.1-0.3,0.1-0.7-0.2-1c-0.5-0.5-0.9-0.9-1.4-1.4
		c0.3-0.3,0.5-0.6,0.7-1C20,17.7,19.5,17.4,19,17c-0.2,0.1-0.4,0.1-0.6,0.1c-0.3,0-0.6-0.1-0.8-0.2c-0.5,0.3-1.1,0.6-1.7,0.8
		c-0.1,0.6-0.4,1-0.9,1.3c-0.4,0.2-0.7,0.3-1.1,0.3c-0.4,0-0.8-0.1-1.1-0.4c-0.7-0.5-1.1-1.5-0.7-2.3c0.3-0.8,1-1.3,1.8-1.3
		c0.3,0,0.6,0.1,0.9,0.2c0.6-0.3,1.1-0.6,1.7-0.8c0.2-0.9,1-1.6,2-1.6c0.2,0,0.5,0,0.7,0.1c0.7,0.3,1.3,1,1.3,1.7
		c0.4,0.3,0.8,0.5,1.2,0.8c0.1-0.3,0.1-0.7,0.1-1c0.3,0,0.6,0,0.9,0c0.4,0,0.8,0,1.2,0c0.2,0,0.3-0.1,0.5-0.1c0,0,0,0,0,0
		c0.1-0.1,0.1-0.2,0.2-0.2c0.1-0.1,0.1-0.3,0.1-0.5c0-0.5-0.3-0.8-0.8-0.8c-0.7,0-1.4,0-2.1,0c-0.1-1.6-0.8-3.1-1.8-4.3
		c0.5-0.5,0.9-0.9,1.4-1.4c0.2-0.2,0.3-0.3,0.3-0.6c0-0.3-0.2-0.7-0.5-0.8c-0.4-0.2-0.7,0-1,0.2c-0.5,0.5-0.9,0.9-1.4,1.4
		c-1.2-1-2.7-1.6-4.3-1.8c0-0.3,0-0.6,0-0.9c0-0.4,0-0.8,0-1.1c0-0.5-0.3-0.8-0.7-0.8c-0.5,0-0.9,0.2-0.9,0.7c0,0.7,0,1.4,0,2.1
		C11.2,6,9.7,6.6,8.5,7.6C8,7.1,7.5,6.6,7,6.1c-0.3-0.3-0.8-0.3-1.1,0C5.6,6.4,5.6,7,5.8,7.2c0.5,0.5,1,1,1.5,1.5
		c-1,1.2-1.6,2.7-1.8,4.3c-0.3,0-0.6,0-0.9,0c-0.4,0-0.8,0-1.1,0c-0.5,0-0.8,0.3-0.8,0.8c0,0.4,0.4,0.8,0.8,0.8c0.7,0,1.4,0,2.1,0
		c0.2,1.7,0.8,3.1,1.7,4.3c-0.5,0.5-1,0.9-1.4,1.4c-0.2,0.3-0.3,0.6-0.1,0.9c0.1,0.3,0.4,0.5,0.7,0.4c0.3,0,0.5-0.1,0.7-0.3
		c0.4-0.5,0.9-0.9,1.3-1.4c1.2,1,2.7,1.6,4.3,1.8C12.8,22.7,12.8,23.4,12.8,24.1z"/>
</g>
</svg>
